<svg width="282" height="274" viewBox="0 0 282 274" fill="none" xmlns="http://www.w3.org/2000/svg">
<g clip-path="url(#clip0_112_115)">
<path fill-rule="evenodd" clip-rule="evenodd" d="M134.594 144.673C135.359 145.438 136.268 145.803 137.36 145.803H224.202V188.341H133.466V263.028H133.211V274H90.7364V191.184C90.7364 190.091 90.3725 189.179 89.6082 188.414C88.8438 187.648 87.9339 187.284 86.842 187.284V187.247H0V144.709H90.7364V70.022H90.9912V59.0864H133.466V141.902C133.466 142.996 133.83 143.907 134.594 144.673Z" fill="#FF7A00"/>
<path d="M275.995 22.4171C271.991 15.7102 266.604 10.279 259.762 6.19655C252.956 2.07762 245.422 0.036377 237.232 0.036377H90.9912V42.5379H235.631C236.723 42.5379 237.633 42.9024 238.397 43.6679C239.161 44.4333 239.525 45.3446 239.525 46.4381V188.231C246.841 187.867 253.611 185.935 259.798 182.217C266.604 178.098 272.027 172.631 276.031 165.814C280.035 158.998 282.036 151.562 282.036 143.579V44.8343C282.036 36.5964 280.035 29.124 276.031 22.4171H275.995Z" fill="white"/>
</g>
<defs>
<clipPath id="clip0_112_115">
<rect width="282" height="274" fill="white"/>
</clipPath>
</defs>
</svg>
