<svg width="1614" height="336" viewBox="0 0 1614 336" fill="none" xmlns="http://www.w3.org/2000/svg">
<path d="M333.682 244.142C326.862 240.024 321.391 234.558 317.27 227.744C313.149 220.93 311.106 213.496 311.106 205.516V0H353.996V203.877C353.996 204.97 354.361 205.881 355.127 206.646C355.893 207.411 356.805 207.776 357.899 207.776H393.969V250.3H355.966C347.942 250.3 340.539 248.259 333.719 244.142H333.682Z" fill="#1E1E1E"/>
<path d="M438.22 244.141C431.4 240.024 425.966 234.558 421.954 227.744C417.942 220.93 415.937 213.496 415.937 205.516V62.019H458.498V203.876C458.498 204.969 458.863 205.88 459.629 206.646C460.395 207.411 461.307 207.775 462.401 207.775H560.873C561.967 207.775 562.879 207.411 563.644 206.646C564.41 205.88 564.775 204.969 564.775 203.876V62.019H607.337V205.516C607.337 213.533 605.331 220.93 601.319 227.744C597.307 234.558 591.946 240.024 585.235 244.141C578.525 248.259 570.939 250.3 562.477 250.3H460.759C452.517 250.3 445.004 248.259 438.184 244.141H438.22Z" fill="#1E1E1E"/>
<path d="M887.424 251.3C879.181 251.3 871.668 249.259 864.848 245.142C858.028 241.024 852.594 235.558 848.582 228.744C844.57 221.93 842.564 214.497 842.564 206.516V135.752H991.403V109.443C991.403 108.35 991.038 107.439 990.272 106.673C989.506 105.908 988.595 105.544 987.501 105.544L842.845 104.997L865.859 62.9829H989.105C997.348 62.9829 1004.86 64.9871 1011.68 68.9954C1018.5 73.0037 1023.9 78.3966 1027.91 85.2472C1031.92 92.0613 1033.93 99.6042 1033.93 107.803V251.3H887.387H887.424ZM889.065 208.776H991.439V174.049H885.199V204.877C885.199 205.97 885.564 206.881 886.33 207.646C887.096 208.411 888.007 208.776 889.102 208.776H889.065Z" fill="#FF7A00"/>
<path d="M1078.64 245.141C1071.82 241.024 1066.39 235.558 1062.38 228.744C1058.36 221.93 1056.36 214.496 1056.36 206.516V63.019H1098.92V204.876C1098.92 205.969 1099.28 206.88 1100.05 207.646C1100.82 208.411 1101.73 208.775 1102.82 208.775H1201.29C1202.39 208.775 1203.3 208.411 1204.07 207.646C1204.83 206.88 1205.2 205.969 1205.2 204.876V63.019H1247.76V206.516C1247.76 214.533 1245.75 221.93 1241.74 228.744C1237.73 235.558 1232.37 241.024 1225.66 245.141C1218.95 249.259 1211.36 251.3 1202.9 251.3H1101.18C1092.94 251.3 1085.42 249.259 1078.6 245.141H1078.64Z" fill="#FF7A00"/>
<path d="M1297.5 245.142C1290.79 241.024 1285.36 235.558 1281.24 228.744C1277.12 221.93 1275.07 214.497 1275.07 206.516V5.22705H1317.64V63.0194H1391.09V105.544H1317.64V204.877C1317.64 205.97 1318 206.881 1318.77 207.646C1319.53 208.411 1320.44 208.776 1321.54 208.776H1391.09V251.3H1319.93C1311.69 251.3 1304.21 249.259 1297.5 245.142Z" fill="#FF7A00"/>
<path d="M1422.6 251.3V1.32812H1465.16V63.0195H1569.14C1577.38 63.0195 1584.86 65.0965 1591.57 69.1777C1598.28 73.2953 1603.72 78.6883 1607.8 85.393C1611.92 92.0978 1613.96 99.5678 1613.96 107.803V251.3H1571.4V109.443C1571.4 108.35 1571.04 107.439 1570.27 106.673C1569.51 105.908 1568.59 105.544 1567.5 105.544H1469.03C1467.93 105.544 1467.02 105.908 1466.26 106.673C1465.49 107.439 1465.13 108.35 1465.13 109.443V251.337H1422.56L1422.6 251.3Z" fill="#FF7A00"/>
<path fill-rule="evenodd" clip-rule="evenodd" d="M851.14 62.0195H741.537V62.0557H670.199C662.212 62.0557 654.772 64.0962 647.952 68.2139C641.132 72.2949 635.661 77.7246 631.54 84.4292C627.419 91.1338 625.376 98.604 625.376 106.839V132.82C625.376 140.837 627.419 148.234 631.54 155.048C635.661 161.862 641.132 167.328 647.952 171.446C654.772 175.563 662.176 177.604 670.199 177.604H770.276C771.37 177.604 772.282 177.968 773.048 178.733C773.814 179.499 774.178 180.41 774.178 181.503V203.913C774.178 205.006 773.814 205.917 773.048 206.682C772.282 207.448 771.37 207.812 770.276 207.812H671.804C670.71 207.812 669.798 207.448 669.032 206.682C668.266 205.917 667.902 205.006 667.902 203.913V198.411H625.34V205.553C625.34 213.533 627.382 220.966 631.503 227.78C635.625 234.595 641.095 240.061 647.915 244.178C654.736 248.296 662.139 250.336 670.163 250.336H771.881C780.342 250.336 787.928 248.296 794.639 244.178C801.386 240.061 806.784 234.595 810.905 227.78C814.99 220.966 817.068 213.569 817.068 205.553V179.572C817.068 171.336 815.026 163.866 810.905 157.162C806.784 150.457 801.349 145.027 794.639 140.91C787.892 136.829 780.342 134.751 771.881 134.751H671.804C670.71 134.751 669.798 134.387 669.032 133.622C668.266 132.857 667.902 131.946 667.902 130.853V108.442C667.902 107.35 668.266 106.438 669.032 105.673C669.798 104.908 670.71 104.543 671.804 104.543L741.537 104.544L827.069 104.872L851.14 62.0195Z" fill="#1E1E1E"/>
<g clip-path="url(#clip0_112_32)">
<path fill-rule="evenodd" clip-rule="evenodd" d="M134.594 206.673C135.359 207.438 136.268 207.803 137.36 207.803H224.202V250.341H133.466V325.028H133.211V336H90.7364V253.184C90.7364 252.091 90.3725 251.179 89.6082 250.414C88.8438 249.648 87.9339 249.284 86.842 249.284V249.247H0V206.709H90.7364V132.022H90.9912V121.086H133.466V203.902C133.466 204.996 133.83 205.907 134.594 206.673Z" fill="#FF7A00"/>
<path d="M275.995 84.4171C271.991 77.7102 266.604 72.279 259.762 68.1965C252.956 64.0776 245.422 62.0364 237.232 62.0364H90.9912V104.538H235.631C236.723 104.538 237.633 104.902 238.397 105.668C239.161 106.433 239.525 107.345 239.525 108.438V250.231C246.841 249.867 253.611 247.935 259.798 244.217C266.604 240.098 272.027 234.631 276.031 227.814C280.035 220.998 282.036 213.562 282.036 205.579V106.834C282.036 98.5964 280.035 91.124 276.031 84.4171H275.995Z" fill="#1E1E1E"/>
</g>
<defs>
<clipPath id="clip0_112_32">
<rect width="282" height="274" fill="white" transform="translate(0 62)"/>
</clipPath>
</defs>
</svg>
